HIERARCHY
ROOT Hips
{
	OFFSET 0.000000 88.474243 0.000000
	CHANNELS 6 Xposition Yposition Zposition Zrotation Yrotation Xrotation 
	JOINT Hips_Spine
	{
		OFFSET 0.000000 0.000000 0.000000
		CHANNELS 3 Zrotation Yrotation Xrotation
		JOINT Spine
		{
			OFFSET 0.005100 8.711998 -0.691000
			CHANNELS 3 Zrotation Yrotation Xrotation
			JOINT Spine1
			{
				OFFSET -0.009200 8.660301 -1.275000
				CHANNELS 3 Zrotation Yrotation Xrotation
				JOINT Spine2
				{
					OFFSET 0.006300 9.852501 -1.857000
					CHANNELS 3 Zrotation Yrotation Xrotation
					JOINT Spine2_Neck
					{
						OFFSET 0.000000 0.000000 0.000000
						CHANNELS 3 Zrotation Yrotation Xrotation
						JOINT Neck
						{
							OFFSET 0.016300 11.420799 -0.263300
							CHANNELS 3 Zrotation Yrotation Xrotation
							End Site #name: Head
							{
								OFFSET -0.019200 9.262405 2.362500
							}
						}
					}
					JOINT Spine2_LeftShoulder
					{
						OFFSET 0.000000 0.000000 0.000000
						CHANNELS 3 Zrotation Yrotation Xrotation
						JOINT LeftShoulder
						{
							OFFSET 5.616900 6.732201 -0.345700
							CHANNELS 3 Zrotation Yrotation Xrotation
							JOINT LeftArm
							{
								OFFSET 10.664888 -0.183372 -2.440700
								CHANNELS 3 Zrotation Yrotation Xrotation
								JOINT LeftForeArm
								{
									OFFSET 27.459126 0.000000 0.000000
									CHANNELS 3 Zrotation Yrotation Xrotation
									End Site #name: LeftHand
									{
										OFFSET 21.306858 0.000000 0.000000
									}
								}
							}
						}
					}
					JOINT Spine2_RightShoulder
					{
						OFFSET 0.000000 0.000000 0.000000
						CHANNELS 3 Zrotation Yrotation Xrotation
						JOINT RightShoulder
						{
							OFFSET -5.580300 6.737503 -0.344400
							CHANNELS 3 Zrotation Yrotation Xrotation
							JOINT RightArm
							{
								OFFSET -10.679335 -0.188484 -2.383900
								CHANNELS 3 Zrotation Yrotation Xrotation
								JOINT RightForeArm
								{
									OFFSET -27.503529 0.000000 0.000000
									CHANNELS 3 Zrotation Yrotation Xrotation
									End Site #name: RightHand
									{
										OFFSET -21.306808 0.000000 0.000000
									}
								}
							}
						}
					}
				}
			}
		}
	}
	JOINT Hips_LeftUpLeg
	{
		OFFSET 0.000000 0.000000 0.000000
		CHANNELS 3 Zrotation Yrotation Xrotation
		JOINT LeftUpLeg
		{
			OFFSET 6.857700 -6.739601 0.312100
			CHANNELS 3 Zrotation Yrotation Xrotation
			JOINT LeftLeg
			{
				OFFSET -0.367590 -34.731552 -4.572400
				CHANNELS 3 Zrotation Yrotation Xrotation
				End Site #name: LeftFoot
				{
					OFFSET 0.367590 -34.656704 -6.067400
				}
			}
		}
	}
	JOINT Hips_RightUpLeg
	{
		OFFSET 0.000000 0.000000 0.000000
		CHANNELS 3 Zrotation Yrotation Xrotation
		JOINT RightUpLeg
		{
			OFFSET -6.876100 -6.733299 0.301000
			CHANNELS 3 Zrotation Yrotation Xrotation
			JOINT RightLeg
			{
				OFFSET 0.347353 -34.795158 -4.515900
				CHANNELS 3 Zrotation Yrotation Xrotation
				End Site #name: RightFoot
				{
					OFFSET -0.347353 -34.589367 -6.070300
				}
			}
		}
	}
}
MOTION
Frames: 17
Frame Time: 0.041667
5.696737 0.833779 1.450512 -4.098468 -9.113826 -0.814810 0.000000 0.000000 0.000000 -0.206424 0.590990 4.356579 -0.805861 1.231705 8.709577 0.000000 0.000000 0.000000 -0.805862 1.231703 8.709573 1.477198 -2.132665 2.965443 -0.805862 1.231703 8.709573 3.098268 0.994341 0.415696 -74.354897 -11.522386 26.350905 179.457846 -86.783085 -179.640481 -0.805862 1.231703 8.709573 -3.815047 -1.941661 1.035307 79.158601 -9.499743 4.251073 -174.740942 83.537793 -174.974604 0.000000 0.000000 0.000000 1.360994 1.160774 -20.535269 -0.947929 0.460707 29.211574 0.000000 0.000000 0.000000 -7.885057 0.308033 -15.874807 0.282617 -0.739408 18.446817 
5.874648 0.890908 1.484553 -4.080766 -9.194520 -0.793257 0.000000 0.000000 0.000000 -0.194445 0.586040 4.313993 -0.772398 1.219422 8.624613 0.000000 0.000000 0.000000 -0.772398 1.219421 8.624622 1.197104 -2.440052 3.059878 -0.772398 1.219421 8.624622 3.076756 0.986785 0.412581 -74.445529 -11.115380 26.072673 179.336966 -86.729431 -179.525737 -0.772398 1.219421 8.624622 -3.657118 -1.864228 0.990971 79.158207 -9.673782 4.044802 -174.742902 83.537667 -174.979320 0.000000 0.000000 0.000000 1.172656 1.104422 -20.334043 -0.935421 0.450966 28.787805 0.000000 0.000000 0.000000 -8.026989 0.516479 -15.735930 0.272327 -0.733110 18.017229 
6.035304 0.943985 1.517459 -4.038389 -9.313021 -0.788109 0.000000 0.000000 0.000000 -0.194016 0.584768 4.271611 -0.759277 1.215315 8.539930 0.000000 0.000000 0.000000 -0.759276 1.215313 8.539930 0.972596 -2.733757 3.147496 -0.759276 1.215313 8.539930 3.041585 0.975081 0.407586 -74.490326 -10.738086 25.815550 179.240281 -86.667974 -179.432986 -0.759276 1.215313 8.539930 -3.541372 -1.796377 0.955706 79.219451 -9.810355 3.852920 -174.732208 83.552378 -174.971780 0.000000 0.000000 0.000000 0.971298 1.034361 -20.117557 -0.922640 0.441381 28.367232 0.000000 0.000000 0.000000 -8.172642 0.767986 -15.587258 0.263319 -0.725370 17.595909 
6.180529 0.989769 1.546874 -3.982040 -9.459167 -0.808014 0.000000 0.000000 0.000000 -0.205514 0.586148 4.234828 -0.768090 1.217435 8.466285 0.000000 0.000000 0.000000 -0.768091 1.217436 8.466294 0.800722 -2.963542 3.206560 -0.768091 1.217436 8.466294 2.988612 0.957495 0.400103 -74.491904 -10.397167 25.577839 179.132013 -86.641614 -179.328128 -0.768091 1.217436 8.466294 -3.539046 -1.783761 0.952300 79.413256 -9.881887 3.699714 -174.671837 83.605526 -174.914848 0.000000 0.000000 0.000000 0.766960 0.945854 -19.890989 -0.910672 0.432265 27.977520 0.000000 0.000000 0.000000 -8.319338 1.153696 -15.435385 0.253809 -0.721157 17.205522 
6.314405 1.028473 1.570493 -3.922921 -9.625553 -0.853394 0.000000 0.000000 0.000000 -0.222198 0.589680 4.206089 -0.786265 1.224387 8.408684 0.000000 0.000000 0.000000 -0.786263 1.224384 8.408686 0.688246 -3.109210 3.231498 -0.786263 1.224384 8.408686 2.933227 0.938775 0.392090 -74.496361 -10.090836 25.382087 178.969818 -86.695894 -179.171892 -0.786263 1.224384 8.408686 -3.589528 -1.803754 0.965386 79.624208 -9.925237 3.588838 -174.619486 83.643772 -174.864972 0.000000 0.000000 0.000000 0.572261 0.891649 -19.657337 -0.899866 0.423834 27.626496 0.000000 0.000000 0.000000 -8.467827 1.575343 -15.296550 0.244587 -0.720725 16.878917 
6.439187 1.064308 1.584396 -3.874134 -9.822417 -0.904626 0.000000 0.000000 0.000000 -0.233299 0.596389 4.182467 -0.794615 1.237439 8.361342 0.000000 0.000000 0.000000 -0.794615 1.237442 8.361338 0.648543 -3.181351 3.235848 -0.794615 1.237442 8.361338 2.898018 0.926604 0.386939 -74.554495 -9.798124 25.248953 178.722835 -86.835422 -178.934986 -0.794615 1.237442 8.361338 -3.600102 -1.809056 0.968551 79.694884 -9.978558 3.513035 -174.637594 83.621205 -174.883293 0.000000 0.000000 0.000000 0.406935 0.946461 -19.431488 -0.889772 0.416149 27.302103 0.000000 0.000000 0.000000 -8.602598 1.828456 -15.227745 0.240336 -0.718000 16.684898 
6.549730 1.098549 1.581098 -3.857505 -10.056446 -0.935824 0.000000 0.000000 0.000000 -0.229708 0.606054 4.162323 -0.778382 1.255499 8.321103 0.000000 0.000000 0.000000 -0.778382 1.255497 8.321103 0.685799 -3.200145 3.222667 -0.778382 1.255497 8.321103 2.902272 0.927963 0.387713 -74.695395 -9.501336 25.166126 178.403224 -87.006918 -178.627970 -0.778382 1.255497 8.321103 -3.555086 -1.788950 0.956733 79.590335 -10.029088 3.457650 -174.731753 83.541386 -174.974541 0.000000 0.000000 0.000000 0.301901 1.091889 -19.252027 -0.880792 0.410016 27.020654 0.000000 0.000000 0.000000 -8.687753 1.893548 -15.335682 0.246205 -0.710723 16.765176 
6.632578 1.122040 1.556570 -3.886577 -10.308867 -0.937400 0.000000 0.000000 0.000000 -0.209684 0.615552 4.147929 -0.735899 1.272405 8.292505 0.000000 0.000000 0.000000 -0.735901 1.272406 8.292514 0.780439 -3.181247 3.180573 -0.735901 1.272406 8.292514 2.957420 0.947034 0.395985 -74.910456 -9.216966 25.109891 178.082485 -87.146728 -178.318765 -0.735901 1.272406 8.292514 -3.493652 -1.762136 0.940615 79.384122 -10.047621 3.394889 -174.886813 83.415679 -175.124830 0.000000 0.000000 0.000000 0.275226 1.205553 -19.170687 -0.874859 0.407996 26.860688 0.000000 0.000000 0.000000 -8.701557 1.862136 -15.684328 0.262818 -0.705252 17.236292 
6.669801 1.119858 1.520496 -3.935397 -10.547315 -0.912075 0.000000 0.000000 0.000000 -0.183551 0.620845 4.136639 -0.685850 1.280794 8.270190 0.000000 0.000000 0.000000 -0.685849 1.280799 8.270186 0.893619 -3.135963 3.113122 -0.685849 1.280799 8.270186 3.058796 0.982191 0.411090 -75.131259 -8.951538 25.081808 177.819455 -87.220770 -178.064261 -0.685849 1.280799 8.270186 -3.450594 -1.742613 0.929151 79.176675 -10.045681 3.309314 -175.073878 83.254538 -175.307290 0.000000 0.000000 0.000000 0.305936 1.240416 -19.221498 -0.874250 0.412233 26.903160 0.000000 0.000000 0.000000 -8.660589 1.638221 -16.159022 0.284148 -0.706284 17.961349 
6.647278 1.089272 1.490817 -3.941934 -10.743029 -0.869623 0.000000 0.000000 0.000000 -0.167152 0.618650 4.121386 -0.655516 1.275056 8.239872 0.000000 0.000000 0.000000 -0.655515 1.275058 8.239872 0.987116 -3.072013 3.038726 -0.655515 1.275058 8.239872 3.172443 1.021599 0.428127 -75.239187 -8.669091 25.093075 177.625669 -87.226365 -177.875030 -0.655515 1.275058 8.239872 -3.443916 -1.734176 0.926097 79.041849 -10.054776 3.229902 -175.243843 83.092608 -175.473970 0.000000 0.000000 0.000000 0.339699 1.284848 -19.375982 -0.877924 0.421946 27.120794 0.000000 0.000000 0.000000 -8.603371 1.070145 -16.474809 0.300965 -0.706465 18.508002 
6.559376 1.042633 1.476228 -3.856051 -10.872953 -0.840621 0.000000 0.000000 0.000000 -0.167372 0.610093 4.103789 -0.653293 1.257716 8.204716 0.000000 0.000000 0.000000 -0.653292 1.257723 8.204716 1.045986 -2.991550 2.963393 -0.653292 1.257723 8.204716 3.245975 1.047250 0.439334 -75.138493 -8.374715 25.144580 177.433371 -87.219306 -177.683264 -0.653292 1.257723 8.204716 -3.487666 -1.742703 0.935150 78.998095 -10.086931 3.208173 -175.355182 82.965797 -175.582394 0.000000 0.000000 0.000000 0.330642 1.390360 -19.545275 -0.881750 0.434535 27.394838 0.000000 0.000000 0.000000 -8.575622 0.349896 -16.411093 0.307203 -0.696168 18.516585 
6.403341 0.991188 1.473421 -3.671937 -10.927290 -0.872802 0.000000 0.000000 0.000000 -0.179854 0.603179 4.095479 -0.663611 1.244210 8.188058 0.000000 0.000000 0.000000 -0.663612 1.244211 8.188066 1.082239 -2.886384 2.874723 -0.663612 1.244211 8.188066 3.250228 1.049695 0.440321 -74.831949 -8.149592 25.227670 177.123700 -87.298887 -177.369703 -0.663612 1.244211 8.188066 -3.592474 -1.776273 0.960054 79.017238 -10.146791 3.275862 -175.407817 82.872443 -175.632313 0.000000 0.000000 0.000000 0.276314 1.501948 -19.643493 -0.882623 0.448823 27.647281 0.000000 0.000000 0.000000 -8.614276 -0.018965 -16.012151 0.302162 -0.682160 18.069460 
6.176693 0.945099 1.480137 -3.412054 -10.917460 -0.995772 0.000000 0.000000 0.000000 -0.197553 0.606182 4.103569 -0.669993 1.250413 8.204164 0.000000 0.000000 0.000000 -0.669993 1.250408 8.204167 1.117290 -2.738481 2.762132 -0.669993 1.250408 8.204167 3.202806 1.035254 0.433705 -74.425631 -8.037347 25.309647 176.568662 -87.519652 -176.808127 -0.669993 1.250408 8.204167 -3.748637 -1.830500 0.998207 79.054958 -10.236223 3.434896 -175.408928 82.806541 -175.630798 0.000000 0.000000 0.000000 0.199949 1.546827 -19.609088 -0.878826 0.463755 27.828445 0.000000 0.000000 0.000000 -8.697101 0.279424 -15.521964 0.293370 -0.676379 17.596372 
5.881714 0.923493 1.500991 -3.106597 -10.857472 -1.189976 0.000000 0.000000 0.000000 -0.214338 0.619808 4.119768 -0.667165 1.277326 8.236491 0.000000 0.000000 0.000000 -0.667164 1.277329 8.236488 1.167657 -2.536977 2.638544 -0.667164 1.277329 8.236488 3.141279 1.015986 0.425205 -74.070317 -7.981603 25.339110 175.611880 -87.862172 -175.846084 -0.667164 1.277329 8.236488 -3.906874 -1.881531 1.036194 79.050648 -10.351448 3.661774 -175.353671 82.789935 -175.571595 0.000000 0.000000 0.000000 0.123603 1.480058 -19.399750 -0.868138 0.476099 27.833305 0.000000 0.000000 0.000000 -8.734646 0.946356 -15.152508 0.295778 -0.668609 17.432966 
5.524246 0.941750 1.540909 -2.793095 -10.748550 -1.393383 0.000000 0.000000 0.000000 -0.223728 0.640501 4.125218 -0.652501 1.317747 8.247369 0.000000 0.000000 0.000000 -0.652501 1.317745 8.247371 1.242754 -2.301113 2.533795 -0.652501 1.317745 8.247371 3.101569 1.002956 0.419539 -73.906419 -7.899224 25.286624 173.926114 -88.291088 -174.161425 -0.652501 1.317745 8.247371 -3.998860 -1.903325 1.056226 78.933107 -10.508819 3.909872 -175.257783 82.819977 -175.468161 0.000000 0.000000 0.000000 0.076644 1.306409 -19.037335 -0.849448 0.483213 27.589381 0.000000 0.000000 0.000000 -8.657125 1.347768 -14.945898 0.318713 -0.637742 17.567027 
5.108267 0.996292 1.598947 -2.507252 -10.590906 -1.539150 0.000000 0.000000 0.000000 -0.222363 0.666064 4.103899 -0.622493 1.367085 8.204794 0.000000 0.000000 0.000000 -0.622492 1.367090 8.204792 1.337917 -2.074199 2.459221 -0.622492 1.367090 8.204792 3.117112 1.007365 0.421678 -74.019450 -7.723703 25.150792 170.644670 -88.767998 -170.886911 -0.622492 1.367090 8.204792 -4.009108 -1.896450 1.056088 78.688203 -10.731759 4.137676 -175.164153 82.853186 -175.363758 0.000000 0.000000 0.000000 0.100145 1.120272 -18.611795 -0.824915 0.485113 27.138905 0.000000 0.000000 0.000000 -8.477624 1.284169 -14.821508 0.354056 -0.586604 17.763729 
4.635039 1.074066 1.669904 -2.261747 -10.381252 -1.598202 0.000000 0.000000 0.000000 -0.213892 0.690011 4.053548 -0.581500 1.412453 8.104239 0.000000 0.000000 0.000000 -0.581499 1.412457 8.104242 1.426709 -1.888590 2.388155 -0.581499 1.412457 8.104242 3.197775 1.033317 0.433479 -74.386949 -7.407562 24.939109 163.473251 -89.221129 -163.725540 -0.581499 1.412457 8.104242 -4.002501 -1.890740 1.053846 78.400327 -10.988265 4.348880 -175.088730 82.872843 -175.276410 0.000000 0.000000 0.000000 0.219057 1.043770 -18.199633 -0.797426 0.482893 26.566079 0.000000 0.000000 0.000000 -8.252824 1.098097 -14.676860 0.382722 -0.540424 17.812588 
